<?xml version="1.0" encoding="UTF-8" standalone="no"?>
<!-- Created with Inkscape (http://www.inkscape.org/) -->

<svg
   width="133.10869mm"
   height="61.239101mm"
   viewBox="0 0 133.10869 61.239099"
   version="1.1"
   id="svg1"
   xml:space="preserve"
   inkscape:version="1.3.2 (091e20e, 2023-11-25, custom)"
   sodipodi:docname="VenA-Vector-no-date.svg"
   xmlns:inkscape="http://www.inkscape.org/namespaces/inkscape"
   xmlns:sodipodi="http://sodipodi.sourceforge.net/DTD/sodipodi-0.dtd"
   xmlns="http://www.w3.org/2000/svg"
   xmlns:svg="http://www.w3.org/2000/svg"><sodipodi:namedview
     id="namedview1"
     pagecolor="#ffffff"
     bordercolor="#000000"
     borderopacity="0.25"
     inkscape:showpageshadow="2"
     inkscape:pageopacity="0.0"
     inkscape:pagecheckerboard="0"
     inkscape:deskcolor="#d1d1d1"
     inkscape:document-units="mm"
     inkscape:zoom="1.3523148"
     inkscape:cx="372.32455"
     inkscape:cy="180.43136"
     inkscape:window-width="1920"
     inkscape:window-height="991"
     inkscape:window-x="-9"
     inkscape:window-y="-9"
     inkscape:window-maximized="1"
     inkscape:current-layer="layer1"
     showgrid="false"><inkscape:page
       x="0"
       y="0"
       width="133.10869"
       height="61.239101"
       id="page1"
       margin="0 0 0"
       bleed="0" /></sodipodi:namedview><defs
     id="defs1"><inkscape:path-effect
       effect="bspline"
       id="path-effect4"
       is_visible="true"
       lpeversion="1.3"
       weight="33.333333"
       steps="2"
       helper_size="0"
       apply_no_weight="true"
       apply_with_weight="true"
       only_selected="false"
       uniform="false" /></defs><g
     inkscape:label="Layer 1"
     inkscape:groupmode="layer"
     id="layer1"
     transform="translate(-1.9565218,-15.847826)"><path
       style="fill:#e8e1d1;fill-opacity:1;stroke-width:0.691238"
       d="m 71.565558,76.053224 c 0.0014,-0.07699 0.169093,-0.685932 0.372912,-1.353207 1.113605,-3.645814 0.279231,-7.664421 -2.325217,-11.19891 -1.965605,-2.667523 -5.516675,-5.646716 -8.817388,-7.397409 l -1.31241,-0.696099 -9.85622,5.067326 c -5.420921,2.787033 -11.012059,5.57093 -12.42475,6.186443 -6.722224,2.92889 -12.453618,4.061701 -19.62261,3.8784 -4.076292,-0.104221 -6.07495,-0.39724 -8.4708968,-1.241892 C 6.3564434,68.327518 4.1758681,66.611586 3.1547655,64.612412 2.6751081,63.673309 2.6356332,63.442574 2.6453203,61.634623 c 0.00895,-1.669292 0.08271,-2.149638 0.4976122,-3.240389 2.4287341,-6.384943 10.3561245,-11.069948 21.1918715,-12.524171 10.319204,-1.384899 22.994477,0.600581 33.691633,5.277521 l 2.132879,0.932523 2.712942,-1.334515 c 1.49212,-0.733982 2.712941,-1.391671 2.712941,-1.461528 0,-0.240203 -3.391826,-3.984168 -5.635852,-6.220971 -1.235859,-1.231882 -3.550989,-3.465248 -5.144734,-4.96303 -4.600589,-4.323587 -5.675064,-5.698662 -6.768676,-8.662319 -1.067283,-2.892308 -0.965292,-5.208335 0.354872,-8.058412 0.72622,-1.56783 2.380143,-3.377959 3.730666,-4.083021 0.968907,-0.505829 1.209689,-0.550668 2.956898,-0.550668 1.732858,0 1.998806,0.04847 2.98901,0.544944 1.886925,0.946053 3.059221,2.382488 4.785041,5.863182 0.822922,1.659693 1.592585,3.017623 1.710378,3.017623 0.117786,0 0.491676,-0.524944 0.830867,-1.166551 3.24405,-6.1364 7.227166,-8.958604 11.8047,-8.364117 1.517575,0.19709 2.332705,0.598081 3.353259,1.649601 3.358283,3.460181 3.091014,9.828946 -0.588288,14.018057 -0.544574,0.620039 -2.473967,2.461224 -4.287536,4.091538 -3.712832,3.337653 -4.902437,4.59595 -6.16573,6.521761 -1.335941,2.036557 -1.751047,2.20728 -1.751047,0.720152 0,-1.842727 1.706948,-4.289169 6.103753,-8.748048 1.744319,-1.768939 3.572075,-3.798142 4.061678,-4.509325 1.103251,-1.602564 1.609456,-3.201355 1.609456,-5.08332 0,-1.931199 -0.277123,-2.8971 -1.111367,-3.873607 -0.933893,-1.093147 -1.927077,-1.481158 -3.549548,-1.386694 -1.756002,0.102229 -3.031854,0.805414 -4.85716,2.676999 -1.525259,1.563935 -2.262255,2.823964 -3.275454,5.600015 -0.672227,1.841822 -1.199047,2.519757 -1.958096,2.519757 -0.887213,0 -1.471425,-0.730066 -3.016861,-3.770023 -2.204938,-4.33724 -3.76433,-6.275491 -5.53261,-6.876784 -0.833974,-0.283584 -2.875728,-0.146349 -3.605209,0.242326 -0.768027,0.409215 -1.537597,1.238722 -1.860389,2.005295 -0.408063,0.969071 -0.335221,3.344164 0.151695,4.946187 1.096601,3.607968 2.560242,5.577119 8.387802,11.284777 3.969777,3.888095 7.902649,8.074967 8.734423,9.298531 0.261686,0.384943 0.270556,0.383389 2.560733,-0.448796 1.263977,-0.459298 4.141364,-1.414368 6.394191,-2.122387 8.606726,-2.704913 12.531106,-3.738898 17.301747,-4.558608 5.022941,-0.863063 6.306039,-0.948065 14.311039,-0.948065 6.45476,0 7.92162,0.05115 9.67422,0.33729 6.29714,1.028144 10.71049,3.049871 13.61922,6.238889 1.92649,2.112137 2.7019,4.056312 2.7019,6.774535 0,1.65996 -0.33818,2.97668 -1.19708,4.660877 -2.78096,5.453159 -11.28158,10.416189 -20.81291,12.151477 -3.08055,0.560849 -9.36317,0.697242 -12.861817,0.279223 C 93.916119,69.637425 88.081566,67.925752 83.575647,65.592486 79.093958,63.271769 76.839058,61.486063 71.610633,56.117125 l -4.209668,-4.3228 -1.942087,0.815568 c -1.068149,0.448556 -2.00662,0.882056 -2.085493,0.963319 -0.07887,0.08127 0.469937,0.507308 1.219572,0.946758 2.822489,1.654606 5.95465,4.360505 7.625295,6.587551 2.51569,3.353558 3.598542,7.389083 2.89602,10.792773 -0.404372,1.959179 -0.944186,2.957116 -1.994037,3.686305 -0.814408,0.565669 -1.560065,0.789468 -1.554677,0.466625 z m -50.36264,-7.514875 c 5.045653,-0.387915 10.401972,-1.609466 14.039293,-3.201773 3.614272,-1.582222 11.753538,-5.748753 15.496842,-7.932918 1.938274,-1.130955 4.033625,-2.340873 4.656336,-2.688714 0.622711,-0.347834 1.132201,-0.685809 1.132201,-0.751044 0,-0.177618 -4.303705,-1.897343 -6.883782,-2.750697 -6.378533,-2.109694 -12.456698,-3.165239 -19.221999,-3.338125 -7.576502,-0.193619 -12.88868,0.728908 -17.386035,3.019321 -6.2644269,3.190339 -9.0535564,7.947022 -7.1270647,12.154763 1.3897836,3.035493 4.9279507,5.017838 9.7690677,5.473364 2.364615,0.222498 2.819918,0.223799 5.525141,0.01582 z m 92.478192,-1.876673 c 2.68204,-0.397643 6.06231,-1.214245 7.66413,-1.851483 4.45233,-1.771226 9.14283,-5.406129 10.33902,-8.01221 1.45879,-3.178206 1.02484,-5.78239 -1.40882,-8.454508 -1.80921,-1.986473 -4.25543,-3.197445 -8.36696,-4.141964 -3.94025,-0.905164 -6.42271,-1.121849 -12.93733,-1.129223 -9.311617,-0.01054 -16.438385,0.879592 -23.974813,2.994441 -2.664443,0.747689 -14.182703,4.531734 -14.385852,4.726126 -0.189199,0.181041 2.747242,3.551812 4.498686,5.164098 5.344155,4.919512 10.074788,7.445452 17.565757,9.379294 7.096055,1.831888 14.457402,2.29637 21.006182,1.325429 z"
       id="path1"
       sodipodi:nodetypes="cssscssssssssscssssssssssssssssssssssssssssssssssssssssssssscsssssscsssssssssssssssssssssss" /><path
       d="m 117.10969,58.388205 q -1.24483,0.718845 -2.22667,0.99937 -0.98184,0.262992 -2.26173,0.262992 -0.0175,0 -1.08703,-0.192861 l -2.15654,-3.874749 h -6.11895 q -1.42015,2.174068 -2.70005,3.489028 -1.613014,1.683148 -3.752016,2.857846 3.489026,-3.804618 5.031916,-6.504669 l -1.0695,0.03507 q 1.08703,-0.508452 1.66561,-0.929239 l 3.5241,-5.119578 0.0351,-0.227926 h -3.06824 l 1.43769,-1.087034 h 3.78709 l 5.32997,9.958631 0.42078,0.368189 z m -8.27548,-3.734486 -2.06888,-4.137741 -2.87537,4.137741 z"
       id="text1"
       style="font-size:17.5328px;font-family:Taranis;-inkscape-font-specification:'Taranis, Normal';fill:#e8e1d1;fill-opacity:1;stroke:#e8e1d1;stroke-opacity:1"
       aria-label="a" /><path
       d="M 31.385416,51.889783 Q 30.175652,54.765162 27.966519,57.956132 26.4061,60.20033 23.65345,63.51403 l -0.596115,-0.210394 -4.751389,-9.064458 q -0.0526,-0.122729 -0.368189,-0.403254 -0.31559,-0.280525 -0.473385,-0.350656 l -1.718215,0.75391 2.577322,-1.963673 0.859107,-0.262992 0.788976,0.140262 q 0.578583,0.420787 2.43706,4.190339 1.139632,2.401994 2.296796,4.821521 1.507821,-1.718215 2.770183,-3.909815 1.31496,-2.261731 1.946141,-4.295536 h -3.874749 l 1.770813,-1.069501 z"
       id="text2"
       style="font-size:17.5328px;font-family:Taranis;-inkscape-font-specification:'Taranis, Normal';fill:#e8e1d1;fill-opacity:1;stroke:#e8e1d1;stroke-opacity:1"
       aria-label="v" /></g></svg>
