<?xml version="1.0" encoding="UTF-8" standalone="no"?>
<!-- Created with Inkscape (http://www.inkscape.org/) -->

<svg
   width="133.30434mm"
   height="69.847801mm"
   viewBox="0 0 133.30434 69.847799"
   version="1.1"
   id="svg1"
   xml:space="preserve"
   inkscape:version="1.3.2 (091e20e, 2023-11-25, custom)"
   sodipodi:docname="VenA-Vector.svg"
   xmlns:inkscape="http://www.inkscape.org/namespaces/inkscape"
   xmlns:sodipodi="http://sodipodi.sourceforge.net/DTD/sodipodi-0.dtd"
   xmlns="http://www.w3.org/2000/svg"
   xmlns:svg="http://www.w3.org/2000/svg"><sodipodi:namedview
     id="namedview1"
     pagecolor="#ffffff"
     bordercolor="#000000"
     borderopacity="0.25"
     inkscape:showpageshadow="2"
     inkscape:pageopacity="0.0"
     inkscape:pagecheckerboard="0"
     inkscape:deskcolor="#d1d1d1"
     inkscape:document-units="mm"
     inkscape:zoom="1.3523148"
     inkscape:cx="372.32455"
     inkscape:cy="175.62479"
     inkscape:window-width="1920"
     inkscape:window-height="991"
     inkscape:window-x="-9"
     inkscape:window-y="1341"
     inkscape:window-maximized="1"
     inkscape:current-layer="layer1"
     showgrid="false" /><defs
     id="defs1"><inkscape:path-effect
       effect="bspline"
       id="path-effect4"
       is_visible="true"
       lpeversion="1.3"
       weight="33.333333"
       steps="2"
       helper_size="0"
       apply_no_weight="true"
       apply_with_weight="true"
       only_selected="false"
       uniform="false" /></defs><g
     inkscape:label="Layer 1"
     inkscape:groupmode="layer"
     id="layer1"
     transform="translate(-1.9565218,-15.847826)"><path
       style="fill:#e8e1d1;stroke-width:0.691238;fill-opacity:1"
       d="m 71.565558,76.053224 c 0.0014,-0.07699 0.169093,-0.685932 0.372912,-1.353207 1.113605,-3.645814 0.279231,-7.664421 -2.325217,-11.19891 -1.965605,-2.667523 -5.516675,-5.646716 -8.817388,-7.397409 l -1.31241,-0.696099 -9.85622,5.067326 c -5.420921,2.787033 -11.012059,5.57093 -12.42475,6.186443 -6.722224,2.92889 -12.453618,4.061701 -19.62261,3.8784 -4.076292,-0.104221 -6.07495,-0.39724 -8.4708968,-1.241892 C 6.3564434,68.327518 4.1758681,66.611586 3.1547655,64.612412 2.6751081,63.673309 2.6356332,63.442574 2.6453203,61.634623 c 0.00895,-1.669292 0.08271,-2.149638 0.4976122,-3.240389 2.4287341,-6.384943 10.3561245,-11.069948 21.1918715,-12.524171 10.319204,-1.384899 22.994477,0.600581 33.691633,5.277521 l 2.132879,0.932523 2.712942,-1.334515 c 1.49212,-0.733982 2.712941,-1.391671 2.712941,-1.461528 0,-0.240203 -3.391826,-3.984168 -5.635852,-6.220971 -1.235859,-1.231882 -3.550989,-3.465248 -5.144734,-4.96303 -4.600589,-4.323587 -5.675064,-5.698662 -6.768676,-8.662319 -1.067283,-2.892308 -0.965292,-5.208335 0.354872,-8.058412 0.72622,-1.56783 2.380143,-3.377959 3.730666,-4.083021 0.968907,-0.505829 1.209689,-0.550668 2.956898,-0.550668 1.732858,0 1.998806,0.04847 2.98901,0.544944 1.886925,0.946053 3.059221,2.382488 4.785041,5.863182 0.822922,1.659693 1.592585,3.017623 1.710378,3.017623 0.117786,0 0.491676,-0.524944 0.830867,-1.166551 3.24405,-6.1364 7.227166,-8.958604 11.8047,-8.364117 1.517575,0.19709 2.332705,0.598081 3.353259,1.649601 3.358283,3.460181 3.091014,9.828946 -0.588288,14.018057 -0.544574,0.620039 -2.473967,2.461224 -4.287536,4.091538 -3.712832,3.337653 -4.902437,4.59595 -6.16573,6.521761 -1.335941,2.036557 -1.751047,2.20728 -1.751047,0.720152 0,-1.842727 1.706948,-4.289169 6.103753,-8.748048 1.744319,-1.768939 3.572075,-3.798142 4.061678,-4.509325 1.103251,-1.602564 1.609456,-3.201355 1.609456,-5.08332 0,-1.931199 -0.277123,-2.8971 -1.111367,-3.873607 -0.933893,-1.093147 -1.927077,-1.481158 -3.549548,-1.386694 -1.756002,0.102229 -3.031854,0.805414 -4.85716,2.676999 -1.525259,1.563935 -2.262255,2.823964 -3.275454,5.600015 -0.672227,1.841822 -1.199047,2.519757 -1.958096,2.519757 -0.887213,0 -1.471425,-0.730066 -3.016861,-3.770023 -2.204938,-4.33724 -3.76433,-6.275491 -5.53261,-6.876784 -0.833974,-0.283584 -2.875728,-0.146349 -3.605209,0.242326 -0.768027,0.409215 -1.537597,1.238722 -1.860389,2.005295 -0.408063,0.969071 -0.335221,3.344164 0.151695,4.946187 1.096601,3.607968 2.560242,5.577119 8.387802,11.284777 3.969777,3.888095 7.902649,8.074967 8.734423,9.298531 0.261686,0.384943 0.270556,0.383389 2.560733,-0.448796 1.263977,-0.459298 4.141364,-1.414368 6.394191,-2.122387 8.606726,-2.704913 12.531106,-3.738898 17.301747,-4.558608 5.022941,-0.863063 6.306039,-0.948065 14.311039,-0.948065 6.45476,0 7.92162,0.05115 9.67422,0.33729 6.29714,1.028144 10.71049,3.049871 13.61922,6.238889 1.92649,2.112137 2.7019,4.056312 2.7019,6.774535 0,1.65996 -0.33818,2.97668 -1.19708,4.660877 -2.78096,5.453159 -11.28158,10.416189 -20.81291,12.151477 -3.08055,0.560849 -9.36317,0.697242 -12.861817,0.279223 C 93.916119,69.637425 88.081566,67.925752 83.575647,65.592486 79.093958,63.271769 76.839058,61.486063 71.610633,56.117125 l -4.209668,-4.3228 -1.942087,0.815568 c -1.068149,0.448556 -2.00662,0.882056 -2.085493,0.963319 -0.07887,0.08127 0.469937,0.507308 1.219572,0.946758 2.822489,1.654606 5.95465,4.360505 7.625295,6.587551 2.51569,3.353558 3.598542,7.389083 2.89602,10.792773 -0.404372,1.959179 -0.944186,2.957116 -1.994037,3.686305 -0.814408,0.565669 -1.560065,0.789468 -1.554677,0.466625 z m -50.36264,-7.514875 c 5.045653,-0.387915 10.401972,-1.609466 14.039293,-3.201773 3.614272,-1.582222 11.753538,-5.748753 15.496842,-7.932918 1.938274,-1.130955 4.033625,-2.340873 4.656336,-2.688714 0.622711,-0.347834 1.132201,-0.685809 1.132201,-0.751044 0,-0.177618 -4.303705,-1.897343 -6.883782,-2.750697 -6.378533,-2.109694 -12.456698,-3.165239 -19.221999,-3.338125 -7.576502,-0.193619 -12.88868,0.728908 -17.386035,3.019321 -6.2644269,3.190339 -9.0535564,7.947022 -7.1270647,12.154763 1.3897836,3.035493 4.9279507,5.017838 9.7690677,5.473364 2.364615,0.222498 2.819918,0.223799 5.525141,0.01582 z m 92.478192,-1.876673 c 2.68204,-0.397643 6.06231,-1.214245 7.66413,-1.851483 4.45233,-1.771226 9.14283,-5.406129 10.33902,-8.01221 1.45879,-3.178206 1.02484,-5.78239 -1.40882,-8.454508 -1.80921,-1.986473 -4.25543,-3.197445 -8.36696,-4.141964 -3.94025,-0.905164 -6.42271,-1.121849 -12.93733,-1.129223 -9.311617,-0.01054 -16.438385,0.879592 -23.974813,2.994441 -2.664443,0.747689 -14.182703,4.531734 -14.385852,4.726126 -0.189199,0.181041 2.747242,3.551812 4.498686,5.164098 5.344155,4.919512 10.074788,7.445452 17.565757,9.379294 7.096055,1.831888 14.457402,2.29637 21.006182,1.325429 z"
       id="path1"
       sodipodi:nodetypes="cssscssssssssscssssssssssssssssssssssssssssssssssssssssssssscsssssscsssssssssssssssssssssss" /><path
       d="m 117.10969,58.388205 q -1.24483,0.718845 -2.22667,0.99937 -0.98184,0.262992 -2.26173,0.262992 -0.0175,0 -1.08703,-0.192861 l -2.15654,-3.874749 h -6.11895 q -1.42015,2.174068 -2.70005,3.489028 -1.613014,1.683148 -3.752016,2.857846 3.489026,-3.804618 5.031916,-6.504669 l -1.0695,0.03507 q 1.08703,-0.508452 1.66561,-0.929239 l 3.5241,-5.119578 0.0351,-0.227926 h -3.06824 l 1.43769,-1.087034 h 3.78709 l 5.32997,9.958631 0.42078,0.368189 z m -8.27548,-3.734486 -2.06888,-4.137741 -2.87537,4.137741 z"
       id="text1"
       style="font-size:17.5328px;font-family:Taranis;-inkscape-font-specification:'Taranis, Normal';stroke:#e8e1d1;stroke-opacity:1;fill:#e8e1d1;fill-opacity:1"
       aria-label="a" /><path
       d="M 31.385416,51.889783 Q 30.175652,54.765162 27.966519,57.956132 26.4061,60.20033 23.65345,63.51403 l -0.596115,-0.210394 -4.751389,-9.064458 q -0.0526,-0.122729 -0.368189,-0.403254 -0.31559,-0.280525 -0.473385,-0.350656 l -1.718215,0.75391 2.577322,-1.963673 0.859107,-0.262992 0.788976,0.140262 q 0.578583,0.420787 2.43706,4.190339 1.139632,2.401994 2.296796,4.821521 1.507821,-1.718215 2.770183,-3.909815 1.31496,-2.261731 1.946141,-4.295536 h -3.874749 l 1.770813,-1.069501 z"
       id="text2"
       style="font-size:17.5328px;font-family:Taranis;-inkscape-font-specification:'Taranis, Normal';stroke:#e8e1d1;stroke-opacity:1;fill:#e8e1d1;fill-opacity:1"
       aria-label="v" /><path
       d="m 46.323061,81.218073 q -0.02045,0.0694 -0.08737,0.15024 -0.07509,0.0964 -0.308219,0.13186 -0.224569,0.0308 -0.363363,-0.0101 l -0.122271,-0.036 q -0.313938,-0.0925 -0.453292,-0.18026 -0.429923,-0.25957 -1.10737,-0.45919 -0.135489,-0.0399 -0.280509,-0.0719 -0.14502,-0.032 -0.303848,-0.0536 -0.32232,-0.0519 -0.561464,-0.0326 -0.448929,0.0365 -0.587401,0.1286 -0.170368,0.11501 -0.262928,0.1488 -0.09353,0.0371 -0.242242,-0.007 -0.25776,-0.076 -0.190572,-0.30397 0.074,-0.25115 0.235433,-0.37238 0.25576,-0.1976 0.559877,-0.29116 0.154197,-0.0479 0.350972,-0.0941 0.201052,-0.0485 0.452265,-0.0966 0.181991,-0.0326 0.370209,-0.0741 0.189191,-0.0448 0.358379,-0.13144 0.150126,-0.0707 0.305504,-0.14702 0.159657,-0.0787 0.322619,-0.15634 0.331175,-0.16101 0.552116,-0.32577 0.232803,-0.16844 0.402228,-0.34119 0.173704,-0.17509 0.23505,-0.38328 0.04479,-0.15201 -0.0354,-0.35522 -0.07689,-0.20223 -0.234475,-0.37437 -0.148646,-0.16591 -0.303963,-0.21168 -0.188364,-0.0555 -0.589112,0.0491 -0.198722,0.0528 -0.36245,0.10869 -0.15945,0.0536 -0.285853,0.1169 -0.04609,0.0223 -0.09743,0.0503 -0.04706,0.0256 -0.09607,0.0579 -0.04901,0.0323 -0.09412,0.0513 -0.04511,0.019 -0.09625,0.0219 -0.04783,0.004 -0.110233,-0.004 -0.05813,-0.01 -0.137437,-0.0333 -0.06279,-0.0185 -0.09595,-0.18631 -0.02753,-0.16254 -0.0032,-0.24516 0.02434,-0.0826 0.08229,-0.10864 0.06981,-0.0297 0.188424,-0.0666 0.122892,-0.0392 0.254341,-0.0831 0.196008,-0.0679 0.362067,-0.11958 0.170337,-0.054 0.315004,-0.0939 0.147972,-0.039 0.290101,-0.0582 0.146408,-0.0215 0.297861,-0.0236 0.226692,-0.001 0.600114,0.10859 0.327157,0.0964 0.543368,0.44744 0.216211,0.35103 0.306993,0.76208 0.04886,0.27298 0.04009,0.30273 -0.07693,0.26106 -0.40117,0.557 -0.159304,0.15059 -0.343098,0.28679 -0.180489,0.13716 -0.383136,0.26421 -0.396738,0.24943 -0.702627,0.38557 -0.581444,0.26684 -1.053537,0.35759 0.08787,0.0187 0.217722,0.0534 0.129854,0.0347 0.308303,0.0873 0.35029,0.10322 1.02927,0.34639 0.09058,0.0339 0.187773,0.0697 0.09817,0.0325 0.201965,0.0703 0.208575,0.0722 0.330846,0.10826 0.08262,0.0243 0.236989,0.0124 0.154374,-0.012 0.220466,0.007 0.05618,0.0165 0.104537,0.12059 0.05069,0.10832 0.03316,0.1678 z m 5.801348,-2.45288 q -0.01918,0.0875 -0.06537,0.13733 -0.06523,0.0562 -0.137928,0.11437 -0.0727,0.0581 -0.148762,0.11552 -0.0727,0.0581 -0.148763,0.11552 -0.07196,0.0548 -0.134978,0.10091 -0.05891,0.0435 -0.145397,0.11626 -0.08312,0.0735 -0.180017,0.16158 -0.09354,0.0888 -0.191174,0.18029 -0.09427,0.0922 -0.1755,0.17314 -0.08049,0.0776 -0.138989,0.1353 -0.0544,0.0551 -0.07155,0.069 -0.179603,0.17578 -0.384469,0.40244 -0.204865,0.22667 -0.390277,0.46113 -0.107965,0.13857 -0.215192,0.27378 -0.106489,0.13184 -0.200671,0.2558 -0.09081,0.12469 -0.16522,0.23888 -0.0744,0.11418 -0.117462,0.21408 -0.03568,0.0662 -0.07109,0.22777 -0.01328,0.0606 -0.04412,0.12083 -0.0301,0.0569 -0.08155,0.0985 -0.04808,0.0424 -0.116032,0.0627 -0.06458,0.0211 -0.145349,0.003 -0.08076,-0.0177 -0.13175,-0.0747 -0.05098,-0.057 -0.07661,-0.13318 -0.02563,-0.0762 -0.03222,-0.15872 -0.0025,-0.0852 0.01226,-0.15249 0.0236,-0.10769 0.27858,-0.45034 0.177944,-0.23256 0.352199,-0.44831 0.174256,-0.21574 0.353029,-0.41991 0.179511,-0.20753 0.364277,-0.40686 0.188869,-0.20196 0.394564,-0.40023 0.04882,-0.0457 0.143092,-0.13792 0.09838,-0.0948 0.209061,-0.19754 0.110684,-0.1027 0.21579,-0.19605 0.109209,-0.096 0.179695,-0.14401 0.07459,-0.0507 0.163698,-0.1193 0.09248,-0.0679 0.170751,-0.1354 l -0.05361,-0.0611 q -0.115892,-0.0183 -0.262809,-0.04 -0.142814,-0.0243 -0.299089,-0.0515 -0.152909,-0.0265 -0.312549,-0.0544 -0.15964,-0.0279 -0.308447,-0.057 -0.220214,-0.0412 -0.490906,-0.0935 -0.266589,-0.0549 -0.520455,-0.1035 -0.253865,-0.0486 -0.45315,-0.0887 -0.199285,-0.0402 -0.276685,-0.0571 -0.04711,-0.0103 -0.07897,-0.042 -0.02849,-0.0309 -0.0473,-0.0739 -0.0147,-0.0455 -0.01858,-0.0922 -0.0031,-0.0501 0.0065,-0.0938 0.01106,-0.0505 0.04642,-0.0991 0.03536,-0.0487 0.08196,-0.0843 0.05071,-0.0383 0.103723,-0.0548 0.05712,-0.0192 0.107595,-0.008 0.09423,0.0206 0.236717,0.0625 0.143229,0.0385 0.321999,0.0917 0.182874,0.0507 0.3994,0.10871 0.217263,0.0547 0.459558,0.10778 0.111052,0.0243 0.249763,0.0512 0.138711,0.0269 0.290883,0.0567 0.15291,0.0265 0.316652,0.0518 0.163743,0.0253 0.324121,0.0499 0.126725,0.0172 0.236625,0.0307 0.114002,0.0109 0.220536,0.0236 0.106535,0.0128 0.212331,0.0289 0.105797,0.0161 0.220214,0.0412 0.08749,0.0192 0.132902,0.0856 0.04951,0.0638 0.02812,0.16135 z m 6.406927,1.55002 q -0.07983,0.63927 -0.175918,1.10291 -0.09267,0.46408 -0.206298,0.76235 -0.02691,0.0765 -0.08929,0.18675 -0.05853,0.10726 -0.149955,0.25555 -0.09143,0.14829 -0.171747,0.26325 -0.08032,0.11495 -0.149536,0.19658 -0.03204,0.0342 -0.08759,0.0897 -0.05554,0.0556 -0.141424,0.13163 -0.301222,0.27138 -0.613146,0.37825 -0.314916,0.10302 -0.711468,0.0535 -0.287158,-0.0359 -0.589704,-0.1153 -0.295709,-0.0786 -0.569207,-0.22385 -0.270078,-0.14482 -0.412397,-0.33966 -0.05086,-0.0654 -0.04061,-0.14742 0.0094,-0.0752 0.04784,-0.1329 0.03888,-0.0611 0.09571,-0.0991 0.05726,-0.0415 0.128614,-0.0568 0.07136,-0.0154 0.149986,-0.006 0.08205,0.0103 0.41238,0.20079 0.1688,0.094 0.285464,0.16064 0.117091,0.0632 0.185465,0.0995 0.137176,0.0692 0.277336,0.0867 0.458085,0.0572 0.767438,-0.11248 0.312772,-0.16925 0.540907,-0.57822 0.329813,-0.58375 0.457455,-1.60589 0.01793,-0.14358 0.04396,-0.46321 0.02945,-0.31921 0.06827,-0.82472 0.01536,-0.17862 0.02517,-0.3128 0.01024,-0.13759 0.02134,-0.22648 -0.0043,-0.0214 0.0235,-0.0491 0.02777,-0.0278 0.0658,-0.0543 0.03803,-0.0265 0.0752,-0.0462 0.0376,-0.0231 0.05683,-0.038 0.04956,-0.0355 0.138446,-0.0244 0.09914,0.0124 0.167943,0.073 0.06923,0.0572 0.08292,0.14229 0.0026,0.007 0.0013,0.10084 -0.0013,0.0936 4.61e-4,0.27434 0.0039,0.35808 -0.0016,0.59695 -0.0021,0.2393 -0.0098,0.30083 z m 6.428644,1.54417 q -0.0039,0.007 -0.02442,0.05 -0.01704,0.0437 -0.04171,0.0971 -0.02098,0.0503 -0.04146,0.0937 -0.02047,0.0434 -0.02416,0.0466 -0.05036,0.12065 -0.147411,0.26548 -0.09336,0.14165 -0.214974,0.29158 -0.118174,0.15018 -0.257217,0.30228 -0.138789,0.14866 -0.276563,0.28358 -0.137521,0.13148 -0.266902,0.24629 -0.129128,0.11137 -0.231416,0.18673 -0.131295,0.0939 -0.283459,0.1898 -0.148727,0.0961 -0.313112,0.17034 -0.160696,0.071 -0.326234,0.11409 -0.165538,0.0431 -0.323582,0.0314 -0.281732,-0.0208 -0.397351,-0.32641 -0.115366,-0.30906 -0.06794,-0.95154 -0.223252,0.26333 -0.48914,0.49588 -0.265634,0.22911 -0.530392,0.39956 -0.261069,0.16728 -0.49938,0.26023 -0.238311,0.093 -0.406663,0.0805 -0.384804,-0.0284 -0.575617,-0.29812 -0.187124,-0.2729 -0.15314,-0.73329 0.0076,-0.10307 0.03595,-0.25297 0.03203,-0.15309 0.07957,-0.32921 0.05123,-0.17931 0.113791,-0.3716 0.06599,-0.19203 0.142291,-0.3833 0.0081,-0.0167 0.02963,-0.0738 0.02174,-0.0606 0.05188,-0.14126 0.03357,-0.0804 0.06791,-0.17117 0.03433,-0.0907 0.06422,-0.16798 0.03357,-0.0804 0.0585,-0.13732 0.02518,-0.0603 0.03332,-0.077 0.0552,-0.0926 0.111049,-0.14725 0.05954,-0.0578 0.145431,-0.0514 0.133994,0.01 0.205269,0.0739 0.07496,0.0608 0.06431,0.20511 -0.0038,0.0515 -0.03966,0.16288 -0.03585,0.11135 -0.08647,0.23543 -0.04692,0.1209 -0.09652,0.23124 -0.04616,0.11059 -0.07033,0.15717 -0.267175,0.67117 -0.302681,1.15217 -0.03829,0.5188 0.205643,0.53681 0.154609,0.0114 0.320908,-0.0419 0.166299,-0.0534 0.328769,-0.14845 0.166161,-0.0983 0.320606,-0.22506 0.158136,-0.12996 0.296164,-0.26831 0.141717,-0.14154 0.252259,-0.28192 0.113978,-0.14013 0.191823,-0.25875 0.05444,-0.0823 0.105446,-0.16494 0.05126,-0.086 0.10646,-0.17868 0.05889,-0.0958 0.122233,-0.20515 0.06334,-0.10933 0.1422,-0.24168 0.06804,-0.12625 0.130118,-0.21839 0.06233,-0.0956 0.120735,-0.0913 0.05154,0.004 0.105494,0.0216 0.05765,0.0146 0.103718,0.0457 0.04976,0.0279 0.07764,0.0714 0.03157,0.0403 0.02726,0.0987 l -0.02124,0.0537 q -0.02124,0.0537 -0.05137,0.13438 -0.03014,0.0807 -0.06816,0.1746 -0.03433,0.0907 -0.06791,0.17117 -0.03014,0.0807 -0.05481,0.13413 -0.02124,0.0537 -0.02467,0.0534 -0.02822,0.10155 -0.05847,0.23059 -0.02682,0.12929 -0.0502,0.25883 -0.02313,0.12611 -0.0418,0.23873 -0.01499,0.10944 -0.02031,0.18159 -0.01699,0.23019 0.02834,0.36481 0.04877,0.13487 0.117486,0.13994 0.11338,0.008 0.232985,-0.0208 0.123294,-0.0324 0.248618,-0.0922 0.125577,-0.0633 0.255858,-0.14347 0.130534,-0.0836 0.258394,-0.17783 0.157121,-0.11622 0.342603,-0.28907 0.185483,-0.17285 0.369305,-0.37001 0.187258,-0.1969 0.358098,-0.40537 0.174529,-0.21166 0.302872,-0.406 0.05838,-0.089 0.122256,-0.11188 0.06731,-0.0227 0.101666,-0.0201 0.02405,0.002 0.04646,0.0725 z m 2.256537,1.10849 q -0.288739,0.37259 -0.585291,0.67251 -0.293109,0.30005 -0.57966,0.5107 -0.282989,0.20733 -0.552294,0.31861 -0.265862,0.1114 -0.493101,0.10349 -0.368402,-0.0128 -0.570848,-0.337 -0.199002,-0.32407 -0.177558,-0.94037 0.01198,-0.3443 0.06767,-0.75602 0.05569,-0.41173 0.135844,-0.83294 0.08015,-0.42121 0.173598,-0.82818 0.09689,-0.40684 0.191261,-0.74138 0.07096,-0.25607 0.139522,-0.44328 0.07201,-0.18709 0.148503,-0.30508 0.0765,-0.11799 0.161165,-0.17365 0.08811,-0.0555 0.194845,-0.0518 0.06886,0.002 0.122871,0.0353 0.05745,0.033 0.09709,0.0827 0.03964,0.0496 0.05802,0.11577 0.02194,0.0628 0.01967,0.12823 -0.0022,0.062 -0.0403,0.16751 -0.03458,0.10221 -0.09066,0.22781 -0.05263,0.12571 -0.116078,0.26484 -0.06344,0.13913 -0.123083,0.26804 -0.05952,0.12548 -0.108114,0.2341 -0.04515,0.10874 -0.06476,0.177 -0.05943,0.222 -0.1215,0.51974 -0.06195,0.2943 -0.117849,0.61295 -0.05234,0.31532 -0.0909,0.63112 -0.03845,0.31235 -0.04755,0.57402 -0.008,0.23068 0.02802,0.38361 0.03616,0.14949 0.09502,0.24117 0.06242,0.0883 0.133408,0.12874 0.07455,0.0371 0.139966,0.0393 0.120505,0.004 0.267268,-0.0528 0.146883,-0.0604 0.309215,-0.1685 0.165775,-0.10799 0.339754,-0.25361 0.177542,-0.14894 0.355922,-0.32199 0.17838,-0.17305 0.353916,-0.36343 0.175656,-0.19382 0.33766,-0.39157 0.06129,-0.0772 0.09715,-0.11727 0.03587,-0.0401 0.06686,-0.039 0.03787,0.001 0.05353,0.0467 0.01922,0.042 0.01682,0.1109 -0.0019,0.0551 -0.02153,0.12335 -0.01949,0.0648 -0.04955,0.13616 -0.02994,0.0679 -0.07021,0.13545 -0.04027,0.0675 -0.08374,0.12808 z m 2.965649,0.46793 q -0.637483,0.50538 -1.180344,0.78406 -0.542862,0.27867 -0.973488,0.27563 -0.230816,-0.002 -0.409592,-0.0546 -0.175331,-0.0529 -0.298451,-0.18126 -0.119675,-0.12832 -0.180202,-0.3389 -0.06053,-0.21058 -0.05826,-0.53097 3.64e-4,-0.0517 0.01475,-0.1377 0.01441,-0.0895 0.03584,-0.19613 0.02489,-0.11007 0.04984,-0.22703 0.02841,-0.12038 0.04986,-0.23047 0.02492,-0.11352 0.03938,-0.20988 0.01446,-0.0964 0.0149,-0.15837 7.54e-4,-0.1068 -0.0262,-0.19312 -0.02348,-0.0897 -0.02307,-0.1483 4.38e-4,-0.062 0.02157,-0.12732 0.0246,-0.0687 0.08011,-0.12346 0.05895,-0.0547 0.155658,-0.0885 0.100172,-0.0372 0.248308,-0.0361 0.02067,1.4e-4 0.05155,0.0176 0.03433,0.0175 0.06167,0.0487 0.02734,0.0312 0.04774,0.0692 0.0204,0.038 0.02011,0.0794 -6.08e-4,0.0861 -0.0256,0.20997 -0.02499,0.12385 -0.06049,0.27175 -0.03547,0.14444 -0.08138,0.3026 -0.04243,0.15473 -0.07795,0.30607 -0.0355,0.14789 -0.06056,0.28207 -0.02506,0.13419 -0.02577,0.2341 -0.0012,0.1688 0.02549,0.29302 0.03013,0.12424 0.095,0.20738 0.06832,0.0832 0.178265,0.12528 0.113393,0.0421 0.275309,0.0433 0.199811,0.001 0.420802,-0.0694 0.221016,-0.0742 0.466585,-0.2103 0.245569,-0.13608 0.515666,-0.33055 0.270098,-0.19446 0.568096,-0.43697 0.02424,-0.017 0.04156,-0.0307 0.02077,-0.0136 0.04488,-0.0135 0.04823,3.5e-4 0.08241,0.0385 0.03763,0.0382 0.03707,0.1174 -2.19e-4,0.031 -0.004,0.0758 -0.0038,0.0448 -0.02135,0.0963 -0.01412,0.0481 -0.04549,0.0996 -0.03137,0.0515 -0.09025,0.0958 z m -1.781775,-3.81607 q -2.92e-4,0.0413 -0.02504,0.13074 -0.02128,0.086 -0.05294,0.17878 -0.03166,0.0928 -0.06323,0.17181 -0.03157,0.079 -0.04896,0.10301 -0.01744,0.0309 -0.05558,0.0651 -0.03814,0.0342 -0.08314,0.0649 -0.045,0.0307 -0.09338,0.051 -0.04493,0.0203 -0.07938,0.0201 -0.0379,-2.7e-4 -0.08244,-0.035 -0.04452,-0.0382 -0.08205,-0.0902 -0.03751,-0.0554 -0.06463,-0.11759 -0.0271,-0.0657 -0.02673,-0.11733 7.29e-4,-0.10335 0.05673,-0.22698 0.056,-0.12363 0.146321,-0.22979 0.09032,-0.10616 0.201075,-0.17773 0.114197,-0.0715 0.227882,-0.0707 0.04134,2.9e-4 0.08212,0.0798 0.04423,0.0796 0.04337,0.20012 z m 3.404922,1.65158 q -8.89e-4,-0.0379 -0.02228,-0.0684 -0.02139,-0.0305 -0.05288,-0.0504 -0.02804,-0.02 -0.06272,-0.0295 -0.03132,-0.013 -0.05543,-0.0125 -0.151542,0.004 -0.307386,0.11749 -0.155924,0.11049 -0.289162,0.30659 -0.133238,0.19611 -0.230336,0.46374 -0.0971,0.26762 -0.127707,0.57848 0.04749,-0.0321 0.125331,-0.0925 0.07784,-0.0604 0.165771,-0.13139 0.09129,-0.0745 0.179144,-0.14894 0.09129,-0.0745 0.162166,-0.1382 0.155277,-0.13805 0.256176,-0.2438 0.100818,-0.10919 0.157347,-0.19667 0.05989,-0.091 0.08206,-0.17423 0.02209,-0.0867 0.0199,-0.17966 z m 1.632612,1.43314 q 0.0028,0.12054 -0.0834,0.26385 -0.08623,0.14332 -0.247428,0.32285 -0.184739,0.20421 -0.40801,0.38175 -0.223352,0.1741 -0.46145,0.30719 -0.23818,0.12965 -0.48446,0.2078 -0.246281,0.0781 -0.477039,0.0836 -0.540731,0.0127 -0.845095,-0.32821 -0.304363,-0.34091 -0.32013,-1.01252 -0.005,-0.21353 0.0277,-0.43485 0.03263,-0.22476 0.09986,-0.44344 0.07068,-0.21876 0.17612,-0.42455 0.108886,-0.20587 0.252861,-0.385 0.09049,-0.10895 0.201555,-0.22183 0.111069,-0.11289 0.246814,-0.20222 0.135663,-0.0928 0.296245,-0.15169 0.164025,-0.059 0.356897,-0.0635 0.137766,-0.003 0.249273,0.0493 0.111425,0.0491 0.189137,0.12995 0.07771,0.0809 0.118023,0.18332 0.04376,0.10235 0.0461,0.20223 0.0049,0.2101 -0.103631,0.42974 -0.108644,0.21621 -0.310118,0.44149 -0.201555,0.22183 -0.485688,0.44905 -0.284215,0.22377 -0.633868,0.44908 -0.04757,0.0287 -0.09498,0.0643 -0.04749,0.0321 -0.04636,0.0803 0.0024,0.10332 0.03265,0.21633 0.03022,0.11301 0.104813,0.20775 0.07451,0.0913 0.196511,0.15046 0.125444,0.0591 0.314873,0.0546 0.24109,-0.006 0.48729,-0.0873 0.249563,-0.0851 0.483975,-0.22846 0.237856,-0.14343 0.457279,-0.33811 0.222866,-0.19477 0.414008,-0.4198 0.107383,-0.12313 0.172821,-0.12467 0.03789,-8.9e-4 0.05616,0.0435 0.01827,0.0444 0.0207,0.1477 z m 7.436608,0.49622 q 0.006,0.0721 -0.02724,0.17165 -0.03523,0.11701 -0.239835,0.23423 -0.198306,0.10979 -0.342505,0.12176 l -0.127032,0.0105 q -0.326163,0.0271 -0.487799,-0.004 -0.494635,-0.0869 -1.198462,-0.0285 -0.140765,0.0117 -0.287542,0.0342 -0.146777,0.0225 -0.302715,0.0597 -0.319312,0.068 -0.535354,0.17232 -0.405474,0.19612 -0.501365,0.33199 -0.117362,0.16875 -0.191485,0.23367 -0.07384,0.0684 -0.228336,0.0812 -0.267798,0.0222 -0.287454,-0.21468 -0.02165,-0.26093 0.08513,-0.43226 0.167181,-0.2766 0.417016,-0.47363 0.126492,-0.10038 0.293329,-0.21448 0.169985,-0.11781 0.386897,-0.25334 0.157962,-0.0961 0.318502,-0.20273 0.160255,-0.11009 0.286762,-0.25195 0.114483,-0.12013 0.231829,-0.2474 0.120495,-0.13099 0.244423,-0.26226 0.250719,-0.26971 0.397286,-0.50311 0.156296,-0.24113 0.251933,-0.46339 0.09878,-0.22599 0.08084,-0.44229 -0.0131,-0.15793 -0.161247,-0.31848 -0.144709,-0.16084 -0.353811,-0.26448 -0.198517,-0.10107 -0.359882,-0.0877 -0.195698,0.0162 -0.531666,0.25845 -0.166267,0.12096 -0.298771,0.2322 -0.129355,0.10753 -0.224378,0.21221 -0.03492,0.0375 -0.0727,0.0821 -0.03463,0.0409 -0.0687,0.0887 -0.03406,0.0478 -0.06927,0.0818 -0.0352,0.034 -0.08184,0.0552 -0.04321,0.0209 -0.104153,0.0363 -0.0578,0.0117 -0.140196,0.0186 -0.06523,0.005 -0.156733,-0.1391 -0.08435,-0.14165 -0.09147,-0.22748 -0.0071,-0.0858 0.03753,-0.13102 0.05438,-0.0529 0.15168,-0.13012 0.10045,-0.0809 0.207196,-0.1693 0.158261,-0.13412 0.294483,-0.24222 0.139371,-0.11182 0.259851,-0.20132 0.123913,-0.0898 0.249536,-0.15899 0.128771,-0.0729 0.269266,-0.1295 0.210885,-0.0832 0.598848,-0.11537 0.339896,-0.0282 0.66825,0.2211 0.328354,0.24931 0.5614,0.59987 0.14411,0.23694 0.146674,0.26784 0.02251,0.27123 -0.173042,0.66426 -0.0942,0.19795 -0.216431,0.39131 -0.1188,0.19308 -0.261918,0.38471 -0.27994,0.37584 -0.516057,0.61321 -0.445907,0.45875 -0.853404,0.71381 0.0887,-0.0143 0.22231,-0.0288 0.133614,-0.0145 0.319012,-0.0299 0.363929,-0.0302 1.084907,-0.0485 0.0967,-0.001 0.200271,-0.003 0.103284,-0.005 0.21372,-0.007 0.220585,-0.008 0.347617,-0.0185 0.08583,-0.007 0.225473,-0.074 0.139641,-0.0669 0.208307,-0.0726 0.05837,-0.005 0.141021,0.0747 0.08637,0.0827 0.0915,0.14451 z m 4.952309,-2.61818 q 0.05469,0.44452 -0.183414,0.93547 -0.238106,0.49095 -0.663272,0.92855 -0.418327,0.43676 -0.91035,0.75416 -0.489023,0.31355 -0.908444,0.43111 -0.521158,0.13702 -0.774187,0.16815 -0.543671,0.0669 -0.890428,-0.26879 -0.343338,-0.3361 -0.411914,-0.89345 -0.05301,-0.43083 0.05611,-0.95451 0.11254,-0.52409 0.358747,-1.00563 0.249205,-0.48537 0.56132,-0.79799 0.36693,-0.3749 0.80077,-0.65737 0.433841,-0.28247 0.847577,-0.33338 0.335093,-0.0412 0.713894,0.0753 0.382221,0.11611 0.700155,0.33038 0.186058,0.12983 0.24066,0.17865 0.371059,0.36393 0.462775,1.10934 z m -0.564401,0.18052 q -0.02398,-0.1949 -0.120922,-0.44677 -0.09436,-0.25914 -0.206986,-0.35635 -0.07464,-0.0707 -0.159545,-0.14004 -0.0819,-0.0732 -0.174484,-0.14862 -0.184742,-0.14735 -0.30005,-0.18176 -0.06644,0.10884 -0.23399,0.12946 -0.02393,0.003 -0.139189,-0.0592 -0.115675,-0.0656 -0.207997,-0.0542 -0.19832,0.0244 -0.39459,0.0937 -0.206949,0.0671 -0.313108,0.16348 -0.172917,0.14624 -0.386185,0.38768 -0.43895,0.49484 -0.70373,1.07932 -0.265201,0.58106 -0.195363,1.14867 0.02819,0.22909 0.108561,0.43094 0.08121,0.20868 0.228083,0.27392 0.312519,0.14204 0.678385,0.097 0.359028,-0.0442 0.880983,-0.37219 0.330312,-0.22114 0.649211,-0.50683 0.105739,-0.0998 0.216633,-0.21409 0.113894,-0.11814 0.229103,-0.25381 0.237256,-0.27216 0.402761,-0.56327 0.168082,-0.29837 0.142419,-0.50695 z m 5.765363,1.00444 q 0.01162,0.0714 -0.0137,0.17326 -0.02595,0.1194 -0.22074,0.25231 -0.189091,0.12499 -0.331908,0.14822 l -0.125815,0.0205 q -0.323039,0.0525 -0.486648,0.0338 -0.499923,-0.0478 -1.197007,0.0656 -0.139417,0.0227 -0.283975,0.0567 -0.144559,0.034 -0.297106,0.0832 -0.313002,0.0928 -0.520201,0.21375 -0.388856,0.2273 -0.473804,0.37026 -0.103774,0.17743 -0.172581,0.24796 -0.06825,0.0739 -0.221272,0.0988 -0.265233,0.0431 -0.303395,-0.19149 -0.04203,-0.25843 0.05098,-0.43761 0.144988,-0.28885 0.378613,-0.50486 0.118235,-0.10998 0.275617,-0.2368 0.160229,-0.13077 0.365851,-0.28289 0.149946,-0.10815 0.301633,-0.22707 0.151134,-0.12231 0.266133,-0.27365 0.104716,-0.12872 0.211726,-0.2648 0.109858,-0.14003 0.223116,-0.28062 0.228811,-0.28852 0.356633,-0.53269 0.136918,-0.25264 0.21484,-0.48172 0.08077,-0.23303 0.04593,-0.44725 -0.02544,-0.15642 -0.185712,-0.30487 -0.156869,-0.14901 -0.373451,-0.23594 -0.205828,-0.0852 -0.365647,-0.0592 -0.193823,0.0315 -0.509775,0.29932 -0.156275,0.13362 -0.279652,0.25491 -0.120531,0.11733 -0.207057,0.22914 -0.03187,0.0401 -0.06604,0.0875 -0.03132,0.0435 -0.06154,0.0938 -0.03021,0.0503 -0.06264,0.087 -0.03243,0.0367 -0.07727,0.0614 -0.04144,0.0242 -0.100988,0.0444 -0.0567,0.0162 -0.13831,0.0295 -0.06461,0.0105 -0.167153,-0.12639 -0.09519,-0.1346 -0.109019,-0.21961 -0.01383,-0.085 0.02714,-0.13356 0.05006,-0.057 0.141015,-0.14161 0.0938,-0.0885 0.19329,-0.18502 0.147262,-0.14611 0.274593,-0.26455 0.130179,-0.1224 0.243273,-0.22107 0.116495,-0.0992 0.236308,-0.17805 0.12266,-0.0828 0.258288,-0.15021 0.203717,-0.0995 0.587963,-0.16195 0.336641,-0.0548 0.683524,0.16805 0.346884,0.22281 0.606688,0.55402 0.162237,0.22492 0.167214,0.25552 0.04369,0.26864 -0.120447,0.67578 -0.07839,0.20472 -0.185097,0.40707 -0.103302,0.20179 -0.230961,0.40406 -0.249622,0.39661 -0.466408,0.65177 -0.408582,0.49228 -0.794836,0.77849 0.08731,-0.0212 0.219368,-0.0462 0.132063,-0.025 0.315685,-0.0548 0.360444,-0.0586 1.077767,-0.13342 0.09632,-0.009 0.199436,-0.0185 0.102565,-0.0132 0.212485,-0.0241 0.219285,-0.0252 0.3451,-0.0457 0.08501,-0.0138 0.218979,-0.0915 0.133968,-0.0776 0.201976,-0.0887 0.05781,-0.009 0.146443,0.0634 0.09259,0.0757 0.102545,0.13689 z m 4.777015,-2.12201 q 0.01588,0.0776 -0.03246,0.15081 -0.04833,0.0732 -0.125961,0.0891 -0.09451,0.0193 -0.165538,-10e-4 -0.185252,-0.0289 -0.422362,-0.0191 -0.233734,0.009 -0.4565,0.0547 -0.09113,0.0186 -0.14782,0.0337 -0.054,0.0111 -0.120819,0.0282 -0.0327,0.40756 0.03564,0.74171 0.01925,0.0769 0.03444,0.1512 0.01449,0.0709 0.0283,0.13838 0.01718,0.0668 0.03444,0.1512 0.01726,0.0844 0.03934,0.19239 0.0069,0.0337 0.116746,0.12381 0.109844,0.0901 0.118127,0.13056 0.01035,0.0506 -0.0083,0.11422 -0.01795,0.067 -0.05416,0.13064 -0.03621,0.0637 -0.08669,0.10915 -0.04979,0.0489 -0.100415,0.0592 -0.06413,0.0131 -0.240484,0.0105 -0.116905,-0.004 -0.195833,-0.13225 -0.07762,-0.13885 -0.106614,-0.28061 -0.01449,-0.0709 -0.02845,-0.17352 -0.01465,-0.10601 -0.02944,-0.24716 -0.03228,-0.27822 -0.05383,-0.41799 -0.05345,-0.33016 -0.04807,-0.64773 -0.04188,0.002 -0.103328,0.0106 -0.06145,0.009 -0.139076,0.0249 -0.722302,0.14771 -1.140301,0.35626 -0.459117,0.23103 -0.850645,0.3111 -0.08438,0.0172 -0.203509,-0.0322 -0.115752,-0.0502 -0.207953,-0.12274 0.0022,-0.10947 0.164559,-0.38178 0.08116,-0.13616 0.17514,-0.27845 0.09666,-0.14635 0.212192,-0.3036 0.115532,-0.15725 0.198153,-0.26909 0.08531,-0.1159 0.141077,-0.18709 0.145833,-0.18103 0.431515,-0.52076 0.144528,-0.17021 0.25676,-0.3092 0.115608,-0.13968 0.20498,-0.2529 0.0336,-0.042 0.07794,-0.10034 0.04703,-0.0624 0.104792,-0.14098 0.05777,-0.0786 0.104791,-0.14099 0.04634,-0.0657 0.09137,-0.12066 0.04434,-0.0583 0.08331,-0.10846 0.04166,-0.0542 0.09075,-0.10647 0.05378,-0.0637 0.133788,-0.15395 0.08001,-0.0902 0.18626,-0.20688 0.208431,-0.23602 0.275936,-0.24983 0.09113,-0.0186 0.18579,-0.003 0.100719,0.011 0.115904,0.0853 -0.0018,0.0426 -0.0082,0.13179 -0.0071,0.0858 -0.01336,0.19261 -0.007,0.10341 -0.01528,0.21763 -0.0056,0.11015 -0.01198,0.19936 -0.01428,0.29127 -0.02403,0.53589 -0.0071,0.24056 -0.01298,0.43518 -0.0059,0.19461 -0.0044,0.39121 0.0049,0.19592 0.01387,0.39452 0.240021,0.0388 0.813813,-0.0785 l 0.06076,-0.0124 0.172137,-0.0352 q 0.223457,-0.0422 0.316348,0.0338 0.09151,0.0692 0.139827,0.30546 z m -2.011622,-1.77231 q -0.106096,0.15181 -0.229759,0.30368 -0.124352,0.14851 -0.248705,0.29701 -0.121668,0.14444 -0.236585,0.2875 -0.114918,0.14306 -0.196082,0.27921 -0.142921,0.22966 -0.35795,0.5022 -0.215719,0.26916 -0.460511,0.53372 0.01035,0.0506 0.07111,0.0382 0.128722,-0.0755 0.407411,-0.15716 0.102562,-0.0315 0.558758,-0.15646 0.229441,-0.0645 0.400122,-0.12402 0.170682,-0.0595 0.285288,-0.11812 -0.0057,-0.0797 -0.0074,-0.15672 -0.0024,-0.0804 -6.84e-4,-0.1581 0.001,-0.0811 0.0066,-0.19123 0.0056,-0.11016 0.01443,-0.25614 0.01766,-0.29195 0.01843,-0.42573 0.0045,-0.35609 -0.02445,-0.49785 z"
       id="text3"
       style="font-size:7.05556px;font-family:'Segoe Script';-inkscape-font-specification:'Segoe Script, Normal';fill:#e8e1d1;stroke:#e8e1d1;fill-opacity:1;stroke-opacity:1"
       inkscape:transform-center-x="6.6632928"
       inkscape:transform-center-y="5.0095939"
       aria-label="27 Julie 2024" /></g></svg>
